<?xml version="1.0" encoding="iso-8859-1"?>
<!-- Generator: Adobe Illustrator 19.0.0, SVG Export Plug-In . SVG Version: 6.00 Build 0)  -->
<svg version="1.1" id="Layer_1" xmlns="http://www.w3.org/2000/svg" xmlns:xlink="http://www.w3.org/1999/xlink" x="0px" y="0px"
	 viewBox="0 0 183.991 46.039" style="enable-background:new 0 0 183.991 46.039;" xml:space="preserve">
<path style="fill:none;" d="M6.863,9.481c0.358-0.87,0.948-1.445,1.768-1.729c0.818-0.279,1.715-0.345,2.689-0.19
	c0.972,0.153,1.933,0.487,2.881,0.998c0.947,0.512,1.768,1.126,2.459,1.843c0.691,0.717,1.178,1.51,1.46,2.38
	c0.281,0.871,0.217,1.741-0.192,2.611c-0.666,1.332-1.589,3.07-2.766,5.222c-1.179,2.15-2.458,4.659-3.841,7.526
	c1.279-1.998,2.624-4.033,4.034-6.106c1.408-2.074,2.804-4.018,4.187-5.837c1.383-1.816,2.676-3.429,3.881-4.838
	c1.203-1.407,2.266-2.419,3.188-3.033c0.819-0.768,1.883-1.101,3.189-0.999c1.307,0.104,2.535,0.499,3.688,1.19
	c1.153,0.691,2.048,1.574,2.689,2.649c0.639,1.076,0.678,2.203,0.115,3.38c-0.564,1.178-1.358,2.725-2.382,4.645
	c-1.025,1.921-2.125,4.109-3.303,6.567c1.331-1.894,2.689-3.789,4.072-5.683c1.383-1.893,2.714-3.648,3.995-5.261
	c1.28-1.612,2.485-3.019,3.612-4.224c1.126-1.202,2.1-2.034,2.92-2.495c0.87-0.511,1.933-0.653,3.189-0.423
	c1.254,0.23,2.42,0.73,3.495,1.498c1.076,0.767,1.933,1.702,2.574,2.803c0.64,1.102,0.807,2.24,0.5,3.417
	c-0.257,0.921-0.845,2.188-1.768,3.8c-0.922,1.613-1.972,3.368-3.15,5.261c-1.179,1.895-2.381,3.815-3.611,5.76
	c-1.229,1.947-2.255,3.686-3.073,5.222c-0.82,1.537-1.344,2.778-1.575,3.725c-0.23,0.948,0.039,1.395,0.806,1.344
	c1.126-0.102,2.368-0.602,3.727-1.498c1.357-0.895,2.663-1.983,3.919-3.264c1.254-1.279,2.393-2.636,3.418-4.07
	c1.025-1.432,1.768-2.713,2.228-3.84c0.512-1.125,1.114-1.893,1.805-2.305c0.692-0.409,1.319-0.51,1.883-0.306
	c0.563,0.205,0.947,0.691,1.152,1.459c0.205,0.768,0.051,1.792-0.461,3.072c-0.461,1.28-1.306,2.84-2.535,4.684
	c-1.229,1.843-2.702,3.61-4.418,5.299c-1.716,1.69-3.611,3.137-5.685,4.339c-2.074,1.203-4.188,1.804-6.339,1.804
	c-1.844,0-3.189-0.485-4.034-1.459c-0.845-0.972-1.32-2.253-1.421-3.84c-0.103-1.586,0.076-3.404,0.537-5.452
	c0.462-2.048,1.05-4.173,1.768-6.375c0.716-2.201,1.485-4.364,2.305-6.49c0.819-2.123,1.536-4.081,2.151-5.875
	c-1.639,1.64-3.407,3.649-5.301,6.029c-1.896,2.381-3.753,4.813-5.571,7.295c-1.819,2.485-3.508,4.839-5.071,7.065
	c-1.563,2.227-2.805,4.033-3.726,5.415c-0.411,1.025-0.974,1.869-1.69,2.534c-0.718,0.666-1.396,1.05-2.037,1.151
	c-0.641,0.103-1.166-0.115-1.575-0.652c-0.41-0.538-0.512-1.471-0.307-2.803c0.203-1.586,0.511-3.391,0.921-5.414
	c0.409-2.023,0.857-4.096,1.345-6.221c0.487-2.123,1.011-4.263,1.575-6.412c0.563-2.15,1.126-4.198,1.69-6.144
	c-1.536,1.793-3.138,3.789-4.801,5.99c-1.665,2.202-3.266,4.404-4.802,6.605c-1.536,2.201-2.946,4.275-4.225,6.22
	c-1.281,1.946-2.332,3.56-3.15,4.838c-0.052,0.051-0.078,0.129-0.078,0.23c-0.41,1.075-0.973,1.946-1.69,2.611
	c-0.718,0.666-1.409,1.063-2.075,1.19c-0.665,0.127-1.203-0.077-1.614-0.614C0,44.768-0.102,43.807,0.102,42.426
	c0.359-2.406,0.794-5.222,1.306-8.448c0.512-3.225,1.076-6.424,1.69-9.598c0.615-3.174,1.241-6.105,1.883-8.793
	C5.621,12.897,6.248,10.863,6.863,9.481z"/>
<path style="fill:none;" d="M66.964,18.827c0.391-0.035,0.729-0.062,1.015-0.08c0.285-0.018,0.569-0.009,0.855,0.026
	c1.923,0,3.517,0.276,4.782,0.828c1.264,0.552,2.253,1.309,2.965,2.27c0.712,0.961,1.158,2.074,1.336,3.337
	c0.178,1.264,0.134,2.591-0.133,3.979c-0.267,1.389-0.739,2.813-1.416,4.272c-0.677,1.461-1.515,2.849-2.512,4.166
	c1.354-0.284,2.44-0.791,3.259-1.522c0.819-0.729,1.496-1.61,2.031-2.644c0.321-0.64,0.721-1.085,1.202-1.335
	c0.481-0.248,0.925-0.32,1.336-0.213c0.409,0.106,0.703,0.373,0.881,0.801s0.125,0.979-0.16,1.656
	c-0.285,0.712-0.748,1.468-1.389,2.27c-0.642,0.8-1.443,1.531-2.405,2.189c-0.962,0.66-2.083,1.202-3.366,1.63
	c-1.282,0.427-2.744,0.605-4.381,0.533c-1.746,1.602-3.696,2.876-5.851,3.819c-2.156,0.944-4.427,1.345-6.813,1.201
	c-1.71-0.106-3.019-0.675-3.927-1.709c-0.908-1.032-1.469-2.34-1.683-3.925c-0.213-1.584-0.097-3.347,0.347-5.287
	c0.445-1.94,1.166-3.863,2.165-5.768c0.996-1.904,2.261-3.703,3.793-5.394c1.531-1.691,3.259-3.052,5.183-4.086
	C64.897,19.344,65.859,19.006,66.964,18.827z M59.75,27.8c-1.069,1.495-1.942,3.098-2.618,4.806
	c-0.678,1.71-1.095,3.285-1.256,4.727c-0.16,1.442-0.018,2.643,0.428,3.604c0.445,0.962,1.256,1.442,2.432,1.442
	c1.033,0,2.039-0.293,3.019-0.882c0.979-0.588,1.897-1.379,2.752-2.377c-1.853-1.245-3.163-2.91-3.928-4.993
	C59.812,32.046,59.536,29.936,59.75,27.8z M66.322,36.558c0.926-1.53,1.691-3.151,2.298-4.861c0.605-1.709,0.979-3.284,1.122-4.726
	c0.141-1.443,0.017-2.625-0.374-3.551c-0.392-0.927-1.104-1.353-2.138-1.282c-0.784,0.107-1.46,0.454-2.03,1.042
	c-0.57,0.587-1.033,1.318-1.389,2.189c-0.356,0.873-0.597,1.834-0.722,2.884c-0.125,1.051-0.089,2.101,0.107,3.151
	c0.195,1.051,0.543,2.029,1.042,2.937C64.736,35.25,65.431,35.989,66.322,36.558z"/>
<path style="fill:none;" d="M92.664,18.827c0.392-0.035,0.729-0.062,1.015-0.08c0.285-0.018,0.569-0.009,0.855,0.026
	c1.923,0,3.517,0.276,4.782,0.828c1.264,0.552,2.253,1.309,2.965,2.27c0.712,0.961,1.158,2.074,1.336,3.337
	c0.178,1.264,0.134,2.591-0.133,3.979c-0.267,1.389-0.74,2.813-1.416,4.272c-0.678,1.461-1.515,2.849-2.512,4.166
	c1.354-0.284,2.44-0.791,3.26-1.522c0.819-0.729,1.496-1.61,2.03-2.644c0.321-0.64,0.721-1.085,1.202-1.335
	c0.481-0.248,0.926-0.32,1.336-0.213c0.409,0.106,0.703,0.373,0.881,0.801c0.178,0.427,0.125,0.979-0.16,1.656
	c-0.285,0.712-0.748,1.468-1.389,2.27c-0.642,0.8-1.443,1.531-2.405,2.189c-0.962,0.66-2.084,1.202-3.366,1.63
	c-1.282,0.427-2.744,0.605-4.382,0.533c-1.746,1.602-3.696,2.876-5.851,3.819c-2.156,0.944-4.427,1.345-6.813,1.201
	c-1.71-0.106-3.019-0.675-3.928-1.709c-0.908-1.032-1.469-2.34-1.683-3.925c-0.214-1.584-0.097-3.347,0.347-5.287
	c0.445-1.94,1.167-3.863,2.164-5.768c0.997-1.904,2.261-3.703,3.794-5.394c1.531-1.691,3.259-3.052,5.183-4.086
	C90.598,19.344,91.559,19.006,92.664,18.827z M85.451,27.8c-1.069,1.495-1.942,3.098-2.618,4.806
	c-0.677,1.71-1.095,3.285-1.256,4.727c-0.16,1.442-0.018,2.643,0.427,3.604c0.445,0.962,1.256,1.442,2.432,1.442
	c1.032,0,2.039-0.293,3.019-0.882c0.979-0.588,1.897-1.379,2.752-2.377c-1.853-1.245-3.162-2.91-3.928-4.993
	C85.512,32.046,85.237,29.936,85.451,27.8z M92.023,36.558c0.926-1.53,1.691-3.151,2.298-4.861c0.605-1.709,0.979-3.284,1.122-4.726
	c0.142-1.443,0.017-2.625-0.374-3.551c-0.392-0.927-1.104-1.353-2.137-1.282c-0.784,0.107-1.461,0.454-2.031,1.042
	c-0.57,0.587-1.033,1.318-1.389,2.189c-0.356,0.873-0.597,1.834-0.722,2.884c-0.125,1.051-0.089,2.101,0.107,3.151
	c0.195,1.051,0.543,2.029,1.042,2.937C90.437,35.25,91.132,35.989,92.023,36.558z"/>
<path style="fill:none;" d="M126.7,10.069c0.57-0.142,1.113,0.125,1.63,0.801c0.516,0.676,0.882,1.461,1.095,2.35
	c0.214,0.891,0.24,1.754,0.08,2.591c-0.16,0.837-0.615,1.362-1.363,1.575c-0.57,0.142-1.683,0.205-3.339,0.187
	c-1.657-0.018-3.553-0.044-5.691-0.08c-0.962,1.709-1.951,3.489-2.966,5.341c-1.015,1.852-1.986,3.667-2.912,5.447
	c-0.927,1.781-1.755,3.481-2.485,5.101c-0.73,1.62-1.282,3.062-1.656,4.326c-0.374,1.265-0.535,2.297-0.481,3.097
	c0.053,0.801,0.418,1.255,1.095,1.362c0.748,0.143,1.496-0.054,2.244-0.588c0.748-0.534,1.443-1.236,2.084-2.11
	c0.641-0.872,1.229-1.815,1.763-2.83c0.535-1.015,0.979-1.932,1.336-2.751c0.32-1.388,0.686-2.768,1.095-4.139
	c0.409-1.37,0.828-2.652,1.256-3.845c0.427-1.192,0.819-2.242,1.175-3.15c0.356-0.908,0.642-1.593,0.855-2.056
	c0.392-0.89,1.06-1.362,2.004-1.415c0.943-0.054,1.887,0.16,2.832,0.64c0.943,0.481,1.718,1.157,2.325,2.029
	c0.605,0.874,0.783,1.789,0.534,2.75c-0.179,0.641-0.579,1.522-1.202,2.644c-0.623,1.121-1.318,2.342-2.084,3.658
	c-0.766,1.318-1.549,2.653-2.351,4.006c-0.801,1.353-1.47,2.564-2.004,3.631c-0.535,1.069-0.864,1.933-0.989,2.591
	c-0.125,0.66,0.08,0.971,0.615,0.935c0.819-0.071,1.611-0.418,2.378-1.042c0.766-0.622,1.487-1.379,2.164-2.269
	c0.676-0.889,1.282-1.834,1.816-2.831c0.534-0.996,0.962-1.886,1.282-2.67c0.356-0.783,0.775-1.317,1.256-1.603
	c0.481-0.284,0.917-0.354,1.309-0.213c0.392,0.143,0.659,0.48,0.801,1.015c0.142,0.534,0.035,1.246-0.321,2.136
	c-0.356,0.891-0.882,1.976-1.576,3.258c-0.695,1.282-1.532,2.511-2.512,3.685c-0.98,1.175-2.102,2.182-3.366,3.018
	c-1.264,0.837-2.645,1.255-4.141,1.255c-1.247,0-2.173-0.382-2.778-1.148c-0.606-0.765-0.98-1.771-1.122-3.017
	c-0.998,1.21-2.129,2.225-3.393,3.044c-1.265,0.819-2.645,1.192-4.141,1.121c-1.461-0.106-2.565-0.578-3.313-1.415
	c-0.748-0.836-1.219-1.958-1.416-3.365c-0.195-1.406-0.151-3.018,0.133-4.833c0.286-1.816,0.73-3.756,1.336-5.821
	c0.606-2.065,1.327-4.184,2.164-6.356c0.837-2.172,1.718-4.308,2.645-6.409c-2.067,0.107-3.883,0.32-5.45,0.641
	c-0.712,0.143-1.274,0.152-1.683,0.027c-0.409-0.124-0.65-0.32-0.722-0.588c-0.071-0.267,0.027-0.578,0.294-0.934
	c0.268-0.356,0.721-0.676,1.363-0.961c1.78-0.889,3.321-1.557,4.622-2.003c1.3-0.445,2.592-0.81,3.874-1.095
	c0.677-1.459,1.344-2.83,2.004-4.112c0.659-1.282,1.246-2.43,1.763-3.445c0.516-1.015,0.962-1.868,1.336-2.563
	c0.374-0.694,0.65-1.183,0.828-1.468c0.463-0.926,1.096-1.317,1.897-1.175c0.802,0.143,1.558,0.579,2.271,1.309
	c0.712,0.729,1.274,1.638,1.683,2.723c0.41,1.087,0.49,2.109,0.241,3.071c-0.107,0.32-0.321,0.801-0.642,1.442
	c-0.32,0.641-0.731,1.424-1.229,2.349L126.7,10.069z M138.402,7.772c0,0.641-0.125,1.247-0.374,1.816
	c-0.25,0.57-0.588,1.068-1.015,1.495c-0.428,0.428-0.927,0.766-1.497,1.015c-0.57,0.25-1.175,0.374-1.816,0.374
	c-1.318,0-2.432-0.463-3.34-1.389c-0.908-0.925-1.363-2.029-1.363-3.311c0-1.318,0.454-2.43,1.363-3.338
	c0.908-0.908,2.021-1.361,3.34-1.361c1.282,0,2.386,0.454,3.313,1.361C137.939,5.342,138.402,6.455,138.402,7.772z"/>
<path style="fill:none;" d="M142.356,18.827c0.392-0.035,0.729-0.062,1.015-0.08c0.285-0.018,0.569-0.009,0.855,0.026
	c1.923,0,3.518,0.276,4.782,0.828c1.264,0.552,2.253,1.309,2.966,2.27c0.712,0.961,1.157,2.074,1.335,3.337
	c0.178,1.264,0.134,2.591-0.133,3.979c-0.267,1.389-0.74,2.813-1.416,4.272c-0.677,1.461-1.514,2.849-2.512,4.166
	c1.354-0.284,2.44-0.791,3.26-1.522c0.819-0.729,1.496-1.61,2.03-2.644c0.32-0.64,0.721-1.085,1.202-1.335
	c0.481-0.248,0.926-0.32,1.336-0.213c0.409,0.106,0.703,0.373,0.881,0.801c0.178,0.427,0.125,0.979-0.16,1.656
	c-0.285,0.712-0.748,1.468-1.389,2.27c-0.642,0.8-1.443,1.531-2.405,2.189c-0.962,0.66-2.084,1.202-3.366,1.63
	c-1.282,0.427-2.744,0.605-4.381,0.533c-1.746,1.602-3.696,2.876-5.851,3.819c-2.156,0.944-4.427,1.345-6.813,1.201
	c-1.71-0.106-3.019-0.675-3.928-1.709c-0.908-1.032-1.469-2.34-1.683-3.925c-0.214-1.584-0.098-3.347,0.347-5.287
	c0.445-1.94,1.167-3.863,2.164-5.768c0.997-1.904,2.261-3.703,3.794-5.394c1.531-1.691,3.259-3.052,5.183-4.086
	C140.289,19.344,141.251,19.006,142.356,18.827z M135.142,27.8c-1.069,1.495-1.942,3.098-2.618,4.806
	c-0.678,1.71-1.095,3.285-1.256,4.727c-0.16,1.442-0.018,2.643,0.427,3.604c0.445,0.962,1.256,1.442,2.432,1.442
	c1.033,0,2.039-0.293,3.019-0.882c0.979-0.588,1.897-1.379,2.752-2.377c-1.853-1.245-3.162-2.91-3.928-4.993
	C135.204,32.046,134.928,29.936,135.142,27.8z M141.714,36.558c0.926-1.53,1.691-3.151,2.298-4.861
	c0.605-1.709,0.979-3.284,1.122-4.726c0.142-1.443,0.017-2.625-0.374-3.551c-0.392-0.927-1.104-1.353-2.137-1.282
	c-0.784,0.107-1.461,0.454-2.03,1.042c-0.57,0.587-1.033,1.318-1.389,2.189c-0.356,0.873-0.597,1.834-0.722,2.884
	c-0.125,1.051-0.089,2.101,0.107,3.151c0.195,1.051,0.543,2.029,1.042,2.937C140.129,35.25,140.823,35.989,141.714,36.558z"/>
<path style="fill:#FFFFFF;" d="M158.598,20.59c0.392-0.889,1.096-1.353,2.111-1.389c1.015-0.035,2.012,0.205,2.993,0.721
	c0.979,0.516,1.763,1.22,2.351,2.109c0.588,0.89,0.668,1.781,0.24,2.67c-0.285,0.57-0.713,1.255-1.282,2.056
	c-0.57,0.802-1.212,1.709-1.924,2.723c-0.713,1.015-1.461,2.128-2.244,3.339c-0.784,1.21-1.532,2.493-2.245,3.844
	c0.748-0.995,1.558-2.073,2.432-3.23c0.872-1.157,1.763-2.314,2.672-3.472c0.908-1.156,1.817-2.296,2.725-3.418
	c0.908-1.122,1.78-2.145,2.618-3.07c0.836-0.926,1.603-1.726,2.298-2.403c0.695-0.677,1.291-1.157,1.79-1.442
	c0.641-0.355,1.397-0.454,2.271-0.294c0.872,0.16,1.683,0.507,2.431,1.042c0.748,0.534,1.344,1.184,1.79,1.949
	c0.445,0.766,0.543,1.558,0.294,2.376c-0.179,0.641-0.588,1.522-1.229,2.644c-0.641,1.121-1.371,2.342-2.191,3.658
	c-0.82,1.318-1.648,2.653-2.485,4.006c-0.837,1.353-1.549,2.564-2.137,3.631c-0.588,1.069-0.962,1.933-1.122,2.591
	c-0.16,0.66,0.026,0.971,0.561,0.935c0.819-0.071,1.701-0.418,2.645-1.042c0.943-0.622,1.852-1.379,2.725-2.269
	c0.872-0.889,1.656-1.834,2.351-2.831c0.695-0.996,1.22-1.886,1.576-2.67c0.321-0.783,0.73-1.317,1.229-1.603
	c0.499-0.284,0.935-0.354,1.309-0.213c0.374,0.143,0.632,0.48,0.775,1.015c0.142,0.534,0.054,1.246-0.267,2.136
	c-0.356,0.891-0.961,1.976-1.816,3.258c-0.855,1.282-1.879,2.511-3.072,3.685c-1.194,1.175-2.503,2.182-3.927,3.018
	c-1.425,0.837-2.885,1.255-4.382,1.255c-1.318,0-2.262-0.338-2.832-1.015c-0.57-0.676-0.891-1.584-0.962-2.724
	c-0.072-1.139,0.053-2.43,0.374-3.872c0.321-1.442,0.729-2.928,1.229-4.459c0.499-1.531,1.033-3.044,1.603-4.54
	c0.57-1.495,1.069-2.866,1.496-4.112c-1.248,1.175-2.637,2.635-4.168,4.379c-1.533,1.745-3.019,3.525-4.462,5.341
	c-1.443,1.815-2.778,3.525-4.007,5.127c-1.229,1.602-2.164,2.849-2.805,3.739c-0.321,0.64-0.722,1.157-1.202,1.548
	c-0.481,0.393-0.926,0.596-1.336,0.615c-0.41,0.017-0.739-0.16-0.989-0.535c-0.249-0.373-0.32-1.005-0.214-1.895
	c0.249-1.673,0.641-3.632,1.175-5.875c0.535-2.242,1.122-4.467,1.763-6.675c0.641-2.208,1.273-4.246,1.897-6.115
	C157.645,22.966,158.171,21.551,158.598,20.59z"/>
</svg>
