<?xml version="1.0" encoding="utf-8"?>
<!-- Generator: Adobe Illustrator 19.0.0, SVG Export Plug-In . SVG Version: 6.00 Build 0)  -->
<svg version="1.1" id="Layer_1" xmlns:sketch="http://www.bohemiancoding.com/sketch/ns"
	 xmlns="http://www.w3.org/2000/svg" xmlns:xlink="http://www.w3.org/1999/xlink" x="0px" y="0px" viewBox="-35 383.9 567.5 74"
	 style="enable-background:new -35 383.9 567.5 74;" xml:space="preserve">
<style type="text/css">
	.st0{enable-background:new    ;}
	.st1{fill:#00CC5E;}
	.st2{fill:#393939;}
</style>
<title>MDashboard</title>
<desc>Created with Sketch.</desc>
<g id="Page-1" sketch:type="MSPage">
	<g class="st0">
		<path class="st1" d="M-12.3,384.4L4.2,433h0.2l15.6-48.6H42v70.7H27.4V405h-0.2L9.9,455.1h-12l-17.3-49.6h-0.2v49.6h-14.6v-70.7
			H-12.3z"/>
	</g>
	<g class="st0">
		<path class="st2" d="M77.8,383.9c4.6,0,8.8,0.7,12.7,2.2c3.9,1.5,7.3,3.6,10.2,6.5c2.9,2.9,5.1,6.5,6.7,10.9
			c1.6,4.4,2.4,9.5,2.4,15.3c0,5.1-0.7,9.9-2,14.3c-1.3,4.4-3.3,8.1-6,11.3c-2.7,3.2-6,5.7-10,7.5c-4,1.8-8.7,2.7-14.1,2.7H47.3
			v-70.7H77.8z M76.7,441.5c2.2,0,4.4-0.4,6.5-1.1c2.1-0.7,4-1.9,5.6-3.6c1.6-1.7,3-3.9,4-6.6c1-2.7,1.5-6,1.5-9.9
			c0-3.6-0.3-6.8-1-9.7s-1.8-5.3-3.4-7.4c-1.6-2-3.7-3.6-6.3-4.7c-2.6-1.1-5.8-1.6-9.7-1.6H62.9v44.6H76.7z"/>
		<path class="st2" d="M116.1,419.1c0.2-3.3,1-6,2.5-8.2c1.5-2.2,3.3-3.9,5.5-5.2c2.2-1.3,4.8-2.3,7.6-2.8c2.8-0.6,5.6-0.8,8.5-0.8
			c2.6,0,5.2,0.2,7.8,0.5c2.6,0.4,5,1.1,7.2,2.1c2.2,1.1,4,2.5,5.3,4.4c1.4,1.9,2.1,4.4,2.1,7.5v26.6c0,2.3,0.1,4.5,0.4,6.6
			c0.3,2.1,0.7,3.7,1.4,4.8h-14.3c-0.3-0.8-0.5-1.6-0.6-2.4c-0.2-0.8-0.3-1.7-0.3-2.5c-2.2,2.3-4.9,3.9-7.9,4.9
			c-3,0.9-6.1,1.4-9.3,1.4c-2.4,0-4.7-0.3-6.8-0.9c-2.1-0.6-4-1.5-5.5-2.8c-1.6-1.3-2.8-2.8-3.7-4.8c-0.9-1.9-1.3-4.2-1.3-6.8
			c0-2.9,0.5-5.3,1.5-7.2c1-1.9,2.3-3.4,4-4.5c1.6-1.1,3.5-2,5.5-2.5c2.1-0.6,4.2-1,6.3-1.3c2.1-0.3,4.2-0.6,6.2-0.8
			c2-0.2,3.9-0.5,5.4-0.9c1.6-0.4,2.8-1,3.8-1.7c0.9-0.8,1.4-1.9,1.3-3.3c0-1.5-0.2-2.7-0.7-3.6c-0.5-0.9-1.2-1.6-2-2.1
			c-0.8-0.5-1.8-0.8-2.9-1c-1.1-0.2-2.3-0.2-3.5-0.2c-2.8,0-5,0.6-6.5,1.8c-1.6,1.2-2.5,3.2-2.8,5.9H116.1z M148.6,429.5
			c-0.6,0.5-1.3,0.9-2.2,1.2s-1.8,0.5-2.9,0.7c-1,0.2-2.1,0.4-3.2,0.5c-1.1,0.1-2.2,0.3-3.4,0.5c-1.1,0.2-2.1,0.5-3.1,0.8
			c-1,0.3-1.9,0.8-2.7,1.3c-0.8,0.6-1.4,1.3-1.8,2.1c-0.5,0.9-0.7,1.9-0.7,3.3c0,1.3,0.2,2.3,0.7,3.2c0.5,0.9,1.1,1.5,1.9,2
			s1.7,0.8,2.8,1c1.1,0.2,2.1,0.3,3.3,0.3c2.8,0,4.9-0.5,6.4-1.4c1.5-0.9,2.6-2,3.4-3.3c0.7-1.3,1.2-2.6,1.3-3.9
			c0.2-1.3,0.2-2.4,0.2-3.2V429.5z"/>
		<path class="st2" d="M182.9,441.9c0.6,1.1,1.4,2,2.4,2.7c1,0.7,2.1,1.2,3.4,1.5c1.3,0.3,2.6,0.5,4,0.5c1,0,2-0.1,3.1-0.3
			c1.1-0.2,2.1-0.6,3-1.1c0.9-0.5,1.6-1.2,2.2-2c0.6-0.8,0.9-1.9,0.9-3.1c0-2.1-1.4-3.7-4.2-4.8c-2.8-1.1-6.7-2.1-11.7-3.2
			c-2-0.5-4-1-6-1.6c-1.9-0.6-3.7-1.5-5.2-2.5c-1.5-1-2.7-2.3-3.7-3.9c-0.9-1.6-1.4-3.4-1.4-5.7c0-3.3,0.6-6,1.9-8.1
			c1.3-2.1,3-3.8,5.1-5c2.1-1.2,4.5-2.1,7.1-2.6c2.6-0.5,5.3-0.7,8.1-0.7c2.8,0,5.5,0.3,8.1,0.8c2.6,0.5,4.9,1.4,7,2.7
			c2,1.3,3.7,2.9,5.1,5c1.4,2.1,2.2,4.7,2.4,7.9h-13.4c-0.2-2.7-1.2-4.5-3.1-5.5c-1.8-1-4-1.4-6.5-1.4c-0.8,0-1.7,0-2.6,0.1
			c-0.9,0.1-1.8,0.3-2.5,0.6c-0.8,0.3-1.4,0.8-1.9,1.4c-0.5,0.6-0.8,1.5-0.8,2.5c0,1.3,0.5,2.3,1.4,3.1c0.9,0.8,2.1,1.4,3.6,1.9
			c1.5,0.5,3.2,0.9,5.1,1.3c1.9,0.4,3.9,0.8,5.8,1.3c2,0.5,4,1,6,1.7c1.9,0.7,3.7,1.5,5.2,2.6c1.5,1.1,2.7,2.4,3.7,4.1
			c0.9,1.6,1.4,3.6,1.4,6c0,3.4-0.7,6.2-2,8.5c-1.4,2.3-3.1,4.1-5.3,5.5c-2.2,1.4-4.7,2.4-7.5,2.9c-2.8,0.6-5.7,0.8-8.6,0.8
			c-3,0-5.9-0.3-8.7-0.9c-2.8-0.6-5.4-1.6-7.6-3c-2.2-1.4-4-3.2-5.4-5.5c-1.4-2.3-2.2-5.1-2.3-8.6H182
			C182,439.5,182.3,440.8,182.9,441.9z"/>
		<path class="st2" d="M235.8,383.9v26.6h0.3c1.8-3,4.1-5.1,6.8-6.5c2.8-1.4,5.5-2,8.1-2c3.8,0,6.8,0.5,9.3,1.5
			c2.4,1,4.3,2.4,5.7,4.3c1.4,1.8,2.4,4,2.9,6.6c0.6,2.6,0.8,5.5,0.8,8.7v31.5h-14.1v-28.9c0-4.2-0.7-7.4-2-9.5
			c-1.3-2.1-3.7-3.1-7-3.1c-3.8,0-6.6,1.1-8.3,3.4c-1.7,2.3-2.6,6-2.6,11.2v26.8h-14.1v-70.7H235.8z"/>
		<path class="st2" d="M292.1,383.9v25.7h0.2c1.7-2.6,4-4.6,7-5.8c2.9-1.2,6-1.8,9.2-1.8c2.6,0,5.1,0.5,7.6,1.6
			c2.5,1.1,4.8,2.7,6.8,4.9c2,2.2,3.6,5,4.9,8.4c1.3,3.4,1.9,7.4,1.9,12.1c0,4.7-0.6,8.7-1.9,12.1c-1.3,3.4-2.9,6.2-4.9,8.4
			c-2,2.2-4.3,3.8-6.8,4.9c-2.5,1.1-5,1.6-7.6,1.6c-3.8,0-7.1-0.6-10.1-1.8c-3-1.2-5.2-3.2-6.7-6h-0.2v6.5H278v-70.7H292.1z
			 M314.8,422.8c-0.5-2-1.2-3.7-2.2-5.2c-1-1.5-2.2-2.7-3.7-3.6c-1.5-0.9-3.3-1.3-5.4-1.3c-2,0-3.8,0.4-5.3,1.3
			c-1.5,0.9-2.8,2.1-3.8,3.6c-1,1.5-1.7,3.3-2.2,5.2c-0.5,2-0.7,4.1-0.7,6.2c0,2.1,0.2,4.2,0.7,6.1c0.5,2,1.2,3.7,2.2,5.2
			c1,1.5,2.2,2.7,3.8,3.6c1.5,0.9,3.3,1.3,5.3,1.3c2.1,0,3.9-0.4,5.4-1.3c1.5-0.9,2.7-2.1,3.7-3.6c1-1.5,1.7-3.3,2.2-5.2
			c0.5-2,0.7-4,0.7-6.1C315.5,426.9,315.3,424.8,314.8,422.8z"/>
		<path class="st2" d="M336.3,417.9c1.3-3.3,3-6.2,5.3-8.5c2.3-2.3,5.1-4.2,8.3-5.4s6.9-1.9,10.9-1.9s7.7,0.6,10.9,1.9
			s6.1,3.1,8.4,5.4c2.3,2.3,4.1,5.2,5.3,8.5c1.3,3.3,1.9,7,1.9,11.1c0,4.1-0.6,7.8-1.9,11.1c-1.3,3.3-3,6.1-5.3,8.5
			c-2.3,2.3-5.1,4.1-8.4,5.4s-6.9,1.9-10.9,1.9s-7.7-0.6-10.9-1.9s-6-3.1-8.3-5.4c-2.3-2.3-4.1-5.2-5.3-8.5c-1.3-3.3-1.9-7-1.9-11.1
			C334.4,424.9,335.1,421.2,336.3,417.9z M349.1,435c0.4,1.9,1.1,3.7,2,5.2c1,1.6,2.2,2.8,3.8,3.7c1.6,0.9,3.6,1.4,5.9,1.4
			c2.4,0,4.4-0.5,6-1.4c1.6-0.9,2.9-2.2,3.9-3.7c1-1.5,1.6-3.3,2-5.2c0.4-1.9,0.6-3.9,0.6-6c0-2-0.2-4.1-0.6-6c-0.4-2-1.1-3.7-2-5.2
			c-1-1.5-2.2-2.8-3.9-3.7c-1.6-1-3.6-1.4-6-1.4c-2.4,0-4.4,0.5-5.9,1.4c-1.6,1-2.9,2.2-3.8,3.7c-1,1.5-1.6,3.3-2,5.2
			c-0.4,2-0.6,4-0.6,6C348.5,431.1,348.7,433.1,349.1,435z"/>
		<path class="st2" d="M393.4,419.1c0.2-3.3,1-6,2.5-8.2c1.5-2.2,3.3-3.9,5.5-5.2c2.2-1.3,4.8-2.3,7.6-2.8c2.8-0.6,5.6-0.8,8.5-0.8
			c2.6,0,5.2,0.2,7.8,0.5c2.6,0.4,5,1.1,7.2,2.1c2.2,1.1,4,2.5,5.3,4.4s2.1,4.4,2.1,7.5v26.6c0,2.3,0.1,4.5,0.4,6.6
			c0.3,2.1,0.7,3.7,1.4,4.8h-14.3c-0.3-0.8-0.5-1.6-0.6-2.4c-0.2-0.8-0.3-1.7-0.3-2.5c-2.2,2.3-4.9,3.9-7.9,4.9
			c-3,0.9-6.1,1.4-9.3,1.4c-2.4,0-4.7-0.3-6.8-0.9c-2.1-0.6-4-1.5-5.5-2.8c-1.6-1.3-2.8-2.8-3.7-4.8c-0.9-1.9-1.3-4.2-1.3-6.8
			c0-2.9,0.5-5.3,1.5-7.2c1-1.9,2.3-3.4,4-4.5c1.6-1.1,3.5-2,5.5-2.5c2.1-0.6,4.2-1,6.3-1.3c2.1-0.3,4.2-0.6,6.2-0.8
			c2-0.2,3.9-0.5,5.4-0.9c1.6-0.4,2.8-1,3.8-1.7c0.9-0.8,1.4-1.9,1.3-3.3c0-1.5-0.2-2.7-0.7-3.6c-0.5-0.9-1.2-1.6-2-2.1
			c-0.8-0.5-1.8-0.8-2.9-1c-1.1-0.2-2.3-0.2-3.5-0.2c-2.8,0-5,0.6-6.5,1.8c-1.6,1.2-2.5,3.2-2.8,5.9H393.4z M425.9,429.5
			c-0.6,0.5-1.3,0.9-2.2,1.2c-0.9,0.3-1.8,0.5-2.9,0.7c-1,0.2-2.1,0.4-3.2,0.5c-1.1,0.1-2.2,0.3-3.4,0.5c-1.1,0.2-2.1,0.5-3.1,0.8
			c-1,0.3-1.9,0.8-2.7,1.3c-0.8,0.6-1.4,1.3-1.8,2.1c-0.5,0.9-0.7,1.9-0.7,3.3c0,1.3,0.2,2.3,0.7,3.2c0.5,0.9,1.1,1.5,1.9,2
			s1.7,0.8,2.8,1c1.1,0.2,2.1,0.3,3.3,0.3c2.8,0,4.9-0.5,6.4-1.4c1.5-0.9,2.6-2,3.4-3.3c0.7-1.3,1.2-2.6,1.3-3.9
			c0.2-1.3,0.2-2.4,0.2-3.2V429.5z"/>
		<path class="st2" d="M461.7,403.4v9.5h0.2c0.7-1.6,1.5-3.1,2.7-4.4c1.1-1.4,2.4-2.5,3.9-3.5c1.5-1,3-1.7,4.7-2.2
			c1.6-0.5,3.4-0.8,5.1-0.8c0.9,0,1.9,0.2,3.1,0.5v13.1c-0.7-0.1-1.5-0.2-2.4-0.3c-0.9-0.1-1.8-0.1-2.7-0.1c-2.6,0-4.8,0.4-6.5,1.3
			c-1.8,0.9-3.2,2-4.3,3.5c-1.1,1.5-1.9,3.2-2.3,5.2c-0.5,2-0.7,4.1-0.7,6.4v23.1h-14.1v-51.2H461.7z"/>
		<path class="st2" d="M519,448c-1.7,2.8-3.8,4.8-6.5,6c-2.7,1.2-5.7,1.8-9.1,1.8c-3.8,0-7.2-0.7-10.1-2.2c-2.9-1.5-5.3-3.5-7.2-6
			c-1.9-2.5-3.3-5.5-4.3-8.8c-1-3.3-1.4-6.7-1.4-10.3c0-3.4,0.5-6.7,1.4-9.9c1-3.2,2.4-6,4.3-8.5c1.9-2.4,4.2-4.4,7.1-5.9
			c2.8-1.5,6.1-2.2,9.9-2.2c3,0,5.9,0.6,8.7,1.9c2.7,1.3,4.9,3.2,6.5,5.7h0.2v-25.7h14.1v70.7h-13.4V448H519z M518.4,422.7
			c-0.4-1.9-1.1-3.7-2-5.1c-1-1.5-2.2-2.7-3.7-3.6c-1.5-0.9-3.4-1.4-5.7-1.4c-2.3,0-4.3,0.5-5.8,1.4c-1.6,0.9-2.9,2.1-3.8,3.7
			c-1,1.5-1.7,3.3-2.1,5.2c-0.4,1.9-0.6,4-0.6,6.1c0,2,0.2,4,0.7,5.9c0.5,2,1.2,3.7,2.2,5.3c1,1.6,2.3,2.8,3.9,3.8
			c1.5,1,3.4,1.4,5.6,1.4c2.3,0,4.2-0.5,5.8-1.4c1.5-0.9,2.8-2.2,3.7-3.7c0.9-1.5,1.6-3.3,2-5.3c0.4-2,0.6-4,0.6-6.1
			C519,426.7,518.8,424.7,518.4,422.7z"/>
	</g>
</g>
</svg>
